<svg xmlns="http://www.w3.org/2000/svg" version="1.1" xmlns:xlink="http://www.w3.org/1999/xlink" xmlns:svgjs="http://svgjs.dev/svgjs" width="1000" height="345" viewBox="0 0 1000 345"><g transform="matrix(1,0,0,1,-0.6060477396241595,0.00956768323683832)"><svg viewBox="0 0 396 137" data-background-color="#ffffff" preserveAspectRatio="xMidYMid meet" height="345" width="1000" xmlns="http://www.w3.org/2000/svg" xmlns:xlink="http://www.w3.org/1999/xlink"><g id="tight-bounds" transform="matrix(1,0,0,1,0.23999570100193068,-0.003797337612923002)"><svg viewBox="0 0 395.52 137.00759612155434" height="137.00759612155434" width="395.52"><g><svg viewBox="0 0 395.52 137.00759612155434" height="137.00759612155434" width="395.52"><g><svg viewBox="0 0 395.52 137.00759612155434" height="137.00759612155434" width="395.52"><g id="textblocktransform"><svg viewBox="0 0 395.52 137.00759612155434" height="137.00759612155434" width="395.52" id="textblock"><g><svg viewBox="0 0 395.52 108.35478260869566" height="108.35478260869566" width="395.52"><g transform="matrix(1,0,0,1,0,0)"><svg width="395.52" viewBox="4.000000476837158 -29.44999885559082 236.89999389648438 61.900001525878906" height="108.35478260869566" data-palette-color="#010c80"><svg></svg><svg></svg><g class="wordmark-text-0" data-fill-palette-color="primary" id="text-0"><path xmlns="http://www.w3.org/2000/svg" d="M11.1 0h-6.6v-25.4l-0.5-4h7.6l11.3 20 11.7-20h6.75v29.4h-6.6v-18.65h-0.55l-1.95 4.35-6.3 11.3h-6.05l-6.3-11.3-2-4.35h-0.5zM52.65 0h-7.3l14.65-29.4h9.85l14.6 29.4h-7.7l-2.95-6.35h-17.9zM64.6-24.9l-6.9 13.65h14.25l-6.85-13.65zM95.55 0h-6.6v-25.4l-0.5-4h7.2l17 17.8 1.95 2.7h0.55v-20.5h6.6v29.4h-6.35l-17.4-18.1-1.95-2.35h-0.5zM133.05 0h-7.3l14.65-29.4h9.85l14.6 29.4h-7.7l-2.95-6.35h-17.9zM145-24.9l-6.9 13.65h14.25l-6.85-13.65zM191.4 0h-14.9c-2.367 0-4.217-0.333-5.55-1-1.333-0.667-2.267-1.667-2.8-3-0.533-1.333-0.8-2.983-0.8-4.95v0-11.15c0-3.2 0.717-5.56 2.15-7.08 1.433-1.513 3.767-2.27 7-2.27v0h15.05c2.3 0 4.057 0.123 5.27 0.37 1.22 0.253 1.83 0.513 1.83 0.78v0l-1 4.15c-0.567-0.1-2.24-0.21-5.02-0.33-2.787-0.113-6.83-0.17-12.13-0.17v0h-2.55c-2.667 0-4 1.183-4 3.55v0 12.75c0 1.133 0.29 2.007 0.87 2.62 0.587 0.62 1.63 0.93 3.13 0.93v0h2.05c3.2 0 5.9-0.027 8.1-0.08 2.2-0.047 4.017-0.087 5.45-0.12v0-6.8l-3 0.05-6.55 0.5v-4.9h16.1v14.05l0.5 1.05c0 0.267-0.7 0.507-2.1 0.72-1.4 0.22-3.767 0.33-7.1 0.33zM234.9 0h-27.3v-29.4h31.1v4.8h-24.5v6.9h18.7v4.95h-18.7v7.95h24.7l2 4.25c0 0.133-0.45 0.257-1.35 0.37-0.9 0.12-2.45 0.18-4.65 0.18z" fill="#010c80" fill-rule="nonzero" stroke="none" stroke-width="1" stroke-linecap="butt" stroke-linejoin="miter" stroke-miterlimit="10" stroke-dasharray="" stroke-dashoffset="0" font-family="none" font-weight="none" font-size="none" text-anchor="none" style="mix-blend-mode: normal" data-fill-palette-color="primary" opacity="1"></path><path xmlns="http://www.w3.org/2000/svg" d="M11.1 32.45h-6.6v-25.4l-0.5-4h7.2l17 17.8 1.95 2.7h0.55v-20.5h6.6v29.4h-6.35l-17.4-18.1-1.95-2.35h-0.5zM68.55 32.45h-14.6c-2.333 0-4.167-0.333-5.5-1-1.333-0.667-2.273-1.667-2.82-3-0.553-1.333-0.83-2.983-0.83-4.95v0-11.55c0-1.933 0.267-3.56 0.8-4.88 0.533-1.313 1.467-2.313 2.8-3 1.333-0.68 3.183-1.02 5.55-1.02v0h14.6c2.333 0 4.16 0.34 5.48 1.02 1.313 0.687 2.247 1.687 2.8 3 0.547 1.32 0.82 2.947 0.82 4.88v0 11.55c0 2.933-0.65 5.16-1.95 6.68-1.3 1.513-3.683 2.27-7.15 2.27zM55.4 27.65v0h11.75c1.233 0 2.193-0.317 2.88-0.95 0.68-0.633 1.02-1.5 1.02-2.6v0-12.75c0-0.967-0.35-1.793-1.05-2.48-0.7-0.68-1.65-1.02-2.85-1.02v0h-11.75c-1.2 0-2.167 0.317-2.9 0.95-0.733 0.633-1.1 1.483-1.1 2.55v0 12.75c0 1.133 0.36 2.007 1.08 2.62 0.713 0.62 1.687 0.93 2.92 0.93zM100.9 32.45h-8.5l-10.75-29.35h7l7.05 19.2 1.15 4.85h0.5l0.65-3.4 6.65-20.65h8.5l6.95 20.65 0.9 3.4h0.5l1.15-4.85 6.55-19.2h7l-0.5 3-10.3 26.35h-8.5l-6.8-19.65-1-3.2h-0.5l-0.95 3.2z" fill="#77d4fc" fill-rule="nonzero" stroke="none" stroke-width="1" stroke-linecap="butt" stroke-linejoin="miter" stroke-miterlimit="10" stroke-dasharray="" stroke-dashoffset="0" font-family="none" font-weight="none" font-size="none" text-anchor="none" style="mix-blend-mode: normal" data-fill-palette-color="secondary" opacity="1"></path></g></svg></g></svg></g><g transform="matrix(1,0,0,1,0,119.96233160347826)"><svg viewBox="0 0 232.209792 17.045264518076078" height="17.045264518076078" width="232.209792"><g transform="matrix(1,0,0,1,0,0)"><svg width="232.209792" viewBox="3.700000047683716 -36.849998474121094 636.1400146484375 46.69999694824219" height="17.045264518076078" data-palette-color="#77d4fc"><path d="M26.6-34.4Q29.2-34.4 31.38-33.33 33.55-32.25 34.83-30.3 36.1-28.35 36.1-25.95L36.1-25.95Q36.1-19.6 30.35-17.95L30.35-17.95 30.35-17.75Q36.9-16.25 36.9-9.15L36.9-9.15Q36.9-6.45 35.58-4.38 34.25-2.3 31.95-1.15 29.65 0 26.9 0L26.9 0 3.7 0 3.7-34.4 26.6-34.4ZM14.75-26.85L14.75-21 22.35-21Q23.45-21 24.18-21.78 24.9-22.55 24.9-23.7L24.9-23.7 24.9-24.2Q24.9-25.3 24.15-26.08 23.4-26.85 22.35-26.85L22.35-26.85 14.75-26.85ZM14.75-13.9L14.75-8 23.15-8Q24.25-8 24.98-8.78 25.7-9.55 25.7-10.7L25.7-10.7 25.7-11.2Q25.7-12.35 24.98-13.13 24.25-13.9 23.15-13.9L23.15-13.9 14.75-13.9ZM55.55-27Q62.8-27 66.62-23.6 70.45-20.2 70.45-13.2L70.45-13.2 70.45-11.5 50.65-11.5Q50.65-8.65 51.92-7.2 53.2-5.75 55.95-5.75L55.95-5.75Q58.45-5.75 59.62-6.8 60.8-7.85 60.8-9.6L60.8-9.6 70.45-9.6Q70.45-4.8 66.8-2.1 63.15 0.6 56.15 0.6L56.15 0.6Q48.8 0.6 44.75-2.83 40.7-6.25 40.7-13.2L40.7-13.2Q40.7-20 44.65-23.5 48.6-27 55.55-27L55.55-27ZM55.95-20.65Q51.25-20.65 50.7-16.2L50.7-16.2 60.4-16.2Q60.4-18.25 59.22-19.45 58.05-20.65 55.95-20.65L55.95-20.65ZM109.29-27Q114.64-27 117.54-23.5 120.44-20 120.44-13.15L120.44-13.15Q120.44-6.35 117.54-2.88 114.64 0.6 109.29 0.6L109.29 0.6Q104.69 0.6 101.89-2.4L101.89-2.4 101.89 9.85 91.94 9.85 91.94-26.4 100.04-26.4 100.89-22.65Q103.79-27 109.29-27L109.29-27ZM106.19-19.65Q103.99-19.65 102.89-18.1 101.79-16.55 101.79-14.05L101.79-14.05 101.79-12.4Q101.79-9.9 102.89-8.33 103.99-6.75 106.19-6.75L106.19-6.75Q110.49-6.75 110.49-11.9L110.49-11.9 110.49-14.55Q110.49-19.65 106.19-19.65L106.19-19.65ZM141.29-27.05Q142.44-27.05 143.34-26.78 144.24-26.5 144.24-26.45L144.24-26.45 144.24-18.1 141.04-18.1Q137.94-18.1 136.56-16.5 135.19-14.9 135.19-11.75L135.19-11.75 135.19 0 125.24 0 125.24-26.4 133.39-26.4 134.04-22.4Q134.94-24.7 136.89-25.88 138.84-27.05 141.29-27.05L141.29-27.05ZM161.89-27Q168.84-27 172.81-23.48 176.79-19.95 176.79-13.2L176.79-13.2Q176.79-6.45 172.81-2.93 168.84 0.6 161.89 0.6L161.89 0.6Q154.94 0.6 150.99-2.9 147.04-6.4 147.04-13.2L147.04-13.2Q147.04-20 150.99-23.5 154.94-27 161.89-27L161.89-27ZM161.89-20.25Q156.99-20.25 156.99-14.6L156.99-14.6 156.99-11.75Q156.99-6.15 161.89-6.15L161.89-6.15Q166.84-6.15 166.84-11.75L166.84-11.75 166.84-14.6Q166.84-20.25 161.89-20.25L161.89-20.25ZM192.34-36.85Q193.44-36.85 195.09-36.58 196.74-36.3 197.74-35.95L197.74-35.95 197.74-30.1 195.44-30.1Q193.84-30.1 193.24-29.5 192.64-28.9 192.64-27.45L192.64-27.45 192.64-26.4 197.74-26.4 197.74-19.65 192.64-19.65 192.64 0 182.69 0 182.69-19.65 178.99-19.65 178.99-26.4 182.69-26.4 182.69-27.5Q182.69-32.6 185.19-34.73 187.69-36.85 192.34-36.85L192.34-36.85ZM213.83-27Q221.08-27 224.91-23.6 228.73-20.2 228.73-13.2L228.73-13.2 228.73-11.5 208.93-11.5Q208.93-8.65 210.21-7.2 211.48-5.75 214.23-5.75L214.23-5.75Q216.73-5.75 217.91-6.8 219.08-7.85 219.08-9.6L219.08-9.6 228.73-9.6Q228.73-4.8 225.08-2.1 221.43 0.6 214.43 0.6L214.43 0.6Q207.08 0.6 203.03-2.83 198.98-6.25 198.98-13.2L198.98-13.2Q198.98-20 202.93-23.5 206.88-27 213.83-27L213.83-27ZM214.23-20.65Q209.53-20.65 208.98-16.2L208.98-16.2 218.68-16.2Q218.68-18.25 217.51-19.45 216.33-20.65 214.23-20.65L214.23-20.65ZM246.08-27Q251.38-27 255.06-24.93 258.73-22.85 258.73-18.5L258.73-18.5 249.48-18.5Q249.48-19.95 248.18-20.55L248.18-20.55Q247.28-21.05 245.93-21.05L245.93-21.05Q242.33-21.05 242.33-19.35L242.33-19.35Q242.33-18.4 243.58-18 244.83-17.6 247.68-17.15L247.68-17.15Q251.18-16.65 253.53-15.98 255.88-15.3 257.63-13.58 259.38-11.85 259.38-8.75L259.38-8.75Q259.38-3.7 255.61-1.55 251.83 0.6 245.73 0.6L245.73 0.6Q242.23 0.6 239.13-0.38 236.03-1.35 234.08-3.4 232.13-5.45 232.13-8.6L232.13-8.6 241.38-8.6 241.38-8.4Q241.43-6.7 242.81-6.03 244.18-5.35 245.73-5.35L245.73-5.35Q249.88-5.35 249.88-7.3L249.88-7.3Q249.88-8.3 248.58-8.75 247.28-9.2 244.33-9.7L244.33-9.7Q240.78-10.3 238.51-11 236.23-11.7 234.53-13.38 232.83-15.05 232.83-18.05L232.83-18.05Q232.83-22.9 236.51-24.95 240.18-27 246.08-27L246.08-27ZM276.63-27Q281.93-27 285.6-24.93 289.28-22.85 289.28-18.5L289.28-18.5 280.03-18.5Q280.03-19.95 278.73-20.55L278.73-20.55Q277.83-21.05 276.48-21.05L276.48-21.05Q272.88-21.05 272.88-19.35L272.88-19.35Q272.88-18.4 274.13-18 275.38-17.6 278.23-17.15L278.23-17.15Q281.73-16.65 284.08-15.98 286.43-15.3 288.18-13.58 289.93-11.85 289.93-8.75L289.93-8.75Q289.93-3.7 286.15-1.55 282.38 0.6 276.28 0.6L276.28 0.6Q272.78 0.6 269.68-0.38 266.58-1.35 264.63-3.4 262.68-5.45 262.68-8.6L262.68-8.6 271.93-8.6 271.93-8.4Q271.98-6.7 273.35-6.03 274.73-5.35 276.28-5.35L276.28-5.35Q280.43-5.35 280.43-7.3L280.43-7.3Q280.43-8.3 279.13-8.75 277.83-9.2 274.88-9.7L274.88-9.7Q271.33-10.3 269.05-11 266.78-11.7 265.08-13.38 263.38-15.05 263.38-18.05L263.38-18.05Q263.38-22.9 267.05-24.95 270.73-27 276.63-27L276.63-27ZM304.93-29.5L294.98-29.5 294.98-36.25 304.93-36.25 304.93-29.5ZM304.93 0L294.98 0 294.98-26.4 304.93-26.4 304.93 0ZM324.92-27Q331.87-27 335.85-23.48 339.82-19.95 339.82-13.2L339.82-13.2Q339.82-6.45 335.85-2.93 331.87 0.6 324.92 0.6L324.92 0.6Q317.97 0.6 314.02-2.9 310.07-6.4 310.07-13.2L310.07-13.2Q310.07-20 314.02-23.5 317.97-27 324.92-27L324.92-27ZM324.92-20.25Q320.02-20.25 320.02-14.6L320.02-14.6 320.02-11.75Q320.02-6.15 324.92-6.15L324.92-6.15Q329.87-6.15 329.87-11.75L329.87-11.75 329.87-14.6Q329.87-20.25 324.92-20.25L324.92-20.25ZM362.82-27Q367.42-27 369.72-24.45 372.02-21.9 372.02-17.1L372.02-17.1 372.02 0 362.07 0 362.07-15.9Q362.07-17.6 361.2-18.63 360.32-19.65 358.72-19.65L358.72-19.65Q356.87-19.65 355.72-18.45 354.57-17.25 354.57-15.5L354.57-15.5 354.57 0 344.62 0 344.62-26.4 352.77-26.4 353.42-22.4Q354.97-24.5 357.5-25.75 360.02-27 362.82-27L362.82-27ZM391.02-27Q397.07-27 400.87-24.98 404.67-22.95 404.67-18.4L404.67-18.4 404.67-8.1Q404.67-7.25 405.07-6.7 405.47-6.15 406.27-6.15L406.27-6.15 408.07-6.15 408.07-0.4Q407.92-0.3 407.29-0.08 406.67 0.15 405.52 0.38 404.37 0.6 402.87 0.6L402.87 0.6Q399.97 0.6 398.09-0.28 396.22-1.15 395.52-2.7L395.52-2.7Q393.62-1.2 391.27-0.3 388.92 0.6 385.77 0.6L385.77 0.6Q376.47 0.6 376.47-6.8L376.47-6.8Q376.47-10.65 378.54-12.68 380.62-14.7 384.52-15.45 388.42-16.2 394.72-16.2L394.72-16.2 394.72-17.5Q394.72-19.05 393.64-19.85 392.57-20.65 390.87-20.65L390.87-20.65Q389.32-20.65 388.19-20.1 387.07-19.55 387.07-18.35L387.07-18.35 387.07-18.15 377.27-18.15Q377.22-18.4 377.22-18.85L377.22-18.85Q377.22-22.6 380.79-24.8 384.37-27 391.02-27L391.02-27ZM394.72-11.5Q390.47-11.5 388.44-10.58 386.42-9.65 386.42-8.1L386.42-8.1Q386.42-5.6 389.82-5.6L389.82-5.6Q391.77-5.6 393.24-6.65 394.72-7.7 394.72-9.25L394.72-9.25 394.72-11.5ZM421.62 0L411.67 0 411.67-36.25 421.62-36.25 421.62 0ZM479.11 0L469.41 0 465.31-14.7 465.11-14.7 460.96 0 451.26 0 441.61-26.4 452.31-26.4 456.31-10.8 456.66-10.8 460.81-26.4 470.71-26.4 474.71-10.8 475.06-10.8 479.11-26.4 488.81-26.4 479.11 0ZM502.11-29.5L492.16-29.5 492.16-36.25 502.11-36.25 502.11-29.5ZM502.11 0L492.16 0 492.16-26.4 502.11-26.4 502.11 0ZM520.46-26.4L526.06-26.4 526.06-19.65 520.46-19.65 520.46-9.6Q520.46-7.8 521.06-6.98 521.66-6.15 523.25-6.15L523.25-6.15 526.06-6.15 526.06-0.3Q524.86 0.1 522.96 0.35 521.06 0.6 519.66 0.6L519.66 0.6Q515.25 0.6 512.88-1 510.51-2.6 510.51-6.45L510.51-6.45 510.51-19.65 506.81-19.65 506.81-26.4 510.91-26.4 513.06-34.4 520.46-34.4 520.46-26.4ZM540.6-23.65Q542.2-25.25 544.35-26.13 546.5-27 548.85-27L548.85-27Q553.45-27 555.75-24.45 558.05-21.9 558.05-17.1L558.05-17.1 558.05 0 548.1 0 548.1-15.9Q548.1-17.6 547.23-18.63 546.35-19.65 544.75-19.65L544.75-19.65Q542.9-19.65 541.75-18.45 540.6-17.25 540.6-15.5L540.6-15.5 540.6 0 530.65 0 530.65-36.25 540.6-36.25 540.6-23.65ZM607.95 0L599.8 0 599.15-4Q597.6-1.85 595.07-0.63 592.55 0.6 589.75 0.6L589.75 0.6Q585.15 0.6 582.85-1.95 580.55-4.5 580.55-9.3L580.55-9.3 580.55-26.4 590.5-26.4 590.5-10.5Q590.5-8.8 591.37-7.78 592.25-6.75 593.85-6.75L593.85-6.75Q595.7-6.75 596.85-7.95 598-9.15 598-10.9L598-10.9 598-26.4 607.95-26.4 607.95 0ZM626.54-27Q631.84-27 635.52-24.93 639.19-22.85 639.19-18.5L639.19-18.5 629.94-18.5Q629.94-19.95 628.64-20.55L628.64-20.55Q627.74-21.05 626.39-21.05L626.39-21.05Q622.79-21.05 622.79-19.35L622.79-19.35Q622.79-18.4 624.04-18 625.29-17.6 628.14-17.15L628.14-17.15Q631.64-16.65 633.99-15.98 636.34-15.3 638.09-13.58 639.84-11.85 639.84-8.75L639.84-8.75Q639.84-3.7 636.07-1.55 632.29 0.6 626.19 0.6L626.19 0.6Q622.69 0.6 619.59-0.38 616.49-1.35 614.54-3.4 612.59-5.45 612.59-8.6L612.59-8.6 621.84-8.6 621.84-8.4Q621.89-6.7 623.27-6.03 624.64-5.35 626.19-5.35L626.19-5.35Q630.34-5.35 630.34-7.3L630.34-7.3Q630.34-8.3 629.04-8.75 627.74-9.2 624.79-9.7L624.79-9.7Q621.24-10.3 618.97-11 616.69-11.7 614.99-13.38 613.29-15.05 613.29-18.05L613.29-18.05Q613.29-22.9 616.97-24.95 620.64-27 626.54-27L626.54-27Z" opacity="1" transform="matrix(1,0,0,1,0,0)" fill="#77d4fc" class="slogan-text-1" data-fill-palette-color="secondary" id="text-1"></path></svg></g></svg></g></svg></g></svg></g></svg></g><defs></defs></svg><rect width="395.52" height="137.00759612155434" fill="none" stroke="none" visibility="hidden"></rect></g></svg></g></svg>